<svg width="194" height="42" viewBox="0 0 194 42" fill="none" xmlns="http://www.w3.org/2000/svg">
<g clip-path="url(#clip0_106_70)">
<path fill-rule="evenodd" clip-rule="evenodd" d="M13.3801 1.50354C11.1787 1.50354 9.06761 2.37801 7.51103 3.93459L0 11.4456V14.8836C0 17.3126 1.04336 19.4979 2.70635 21.0157C1.04336 22.5336 0 24.7188 0 27.1478V30.5859L7.51103 38.0969C9.06761 39.6535 11.1787 40.5279 13.3801 40.5279C15.8091 40.5279 17.9943 39.4846 19.5122 37.8216C21.03 39.4846 23.2153 40.5279 25.6443 40.5279C27.8456 40.5279 29.9568 39.6535 31.5134 38.0969L39.0244 30.5859V27.1478C39.0244 24.7188 37.9811 22.5336 36.318 21.0157C37.9811 19.4979 39.0244 17.3126 39.0244 14.8836V11.4456L31.5134 3.93459C29.9568 2.37801 27.8456 1.50354 25.6443 1.50354C23.2153 1.50354 21.03 2.54689 19.5122 4.20989C17.9943 2.54689 15.8091 1.50354 13.3801 1.50354ZM25.1305 21.0157C25.037 20.9304 24.9452 20.8426 24.8552 20.7527L19.5122 15.4097L14.1692 20.7527C14.0792 20.8426 13.9874 20.9304 13.8938 21.0157C13.9874 21.1011 14.0792 21.1888 14.1692 21.2787L19.5122 26.6218L24.8552 21.2787C24.9452 21.1888 25.037 21.1011 25.1305 21.0157ZM21.6802 30.5859V32.2278C21.6802 34.4171 23.455 36.1919 25.6443 36.1919C26.6956 36.1919 27.7039 35.7743 28.4473 35.0308L34.6884 28.7898V27.1478C34.6884 24.9585 32.9135 23.1837 30.7243 23.1837C29.673 23.1837 28.6647 23.6014 27.9213 24.3448L21.6802 30.5859ZM17.3442 30.5859L11.1031 24.3448C10.3597 23.6014 9.35145 23.1837 8.30011 23.1837C6.11082 23.1837 4.33604 24.9585 4.33604 27.1478V28.7898L10.5771 35.0308C11.3205 35.7743 12.3288 36.1919 13.3801 36.1919C15.5694 36.1919 17.3442 34.4171 17.3442 32.2278V30.5859ZM17.3442 9.80365V11.4456L11.1031 17.6866C10.3597 18.4301 9.35145 18.8477 8.30011 18.8477C6.11082 18.8477 4.33604 17.0729 4.33604 14.8836V13.2417L10.5771 7.00063C11.3205 6.25722 12.3288 5.83958 13.3801 5.83958C15.5694 5.83958 17.3442 7.61436 17.3442 9.80365ZM27.9213 17.6866L21.6802 11.4456V9.80365C21.6802 7.61436 23.455 5.83958 25.6443 5.83958C26.6956 5.83958 27.7039 6.25722 28.4473 7.00063L34.6884 13.2417V14.8836C34.6884 17.0729 32.9135 18.8477 30.7243 18.8477C29.673 18.8477 28.6647 18.4301 27.9213 17.6866Z" fill="#422A3C"/>
</g>
<path d="M52.2001 25.175C52.9234 25.175 53.4834 25.3967 53.8801 25.84C54.2767 26.2833 54.4751 26.8317 54.4751 27.485C54.4751 28.115 54.3701 28.6283 54.1601 29.025C55.1867 29.865 56.3651 30.285 57.6951 30.285C59.0484 30.285 60.0634 29.9817 60.7401 29.375C61.4167 28.745 61.7551 27.8933 61.7551 26.82C61.7551 25.7467 61.3817 24.825 60.6351 24.055C59.8884 23.285 58.9784 22.6433 57.9051 22.13C56.8551 21.6167 55.8051 21.08 54.7551 20.52C53.7051 19.9367 52.8067 19.1667 52.0601 18.21C51.3134 17.2533 50.9401 16.1217 50.9401 14.815C50.9401 13.0183 51.5351 11.6183 52.7251 10.615C53.9151 9.58833 55.4434 9.075 57.3101 9.075C59.1767 9.075 60.7867 9.51833 62.1401 10.405C63.5167 11.2917 64.2051 12.4933 64.2051 14.01C64.2051 15.5033 63.5984 16.25 62.3851 16.25C61.6617 16.25 61.1017 16.0283 60.7051 15.585C60.3084 15.1417 60.1101 14.57 60.1101 13.87C60.1101 13.17 60.2501 12.6333 60.5301 12.26C59.7134 11.5133 58.7101 11.14 57.5201 11.14C56.3301 11.14 55.4317 11.4433 54.8251 12.05C54.2417 12.6567 53.9501 13.415 53.9501 14.325C53.9501 15.235 54.2184 16.0167 54.7551 16.67C55.2917 17.3 55.9567 17.825 56.7501 18.245C57.5434 18.6417 58.4067 19.1083 59.3401 19.645C60.2734 20.1583 61.1367 20.6717 61.9301 21.185C62.7234 21.6983 63.3884 22.3983 63.9251 23.285C64.4617 24.1483 64.7301 25.14 64.7301 26.26C64.7301 28.1033 64.0884 29.6083 62.8051 30.775C61.5451 31.9417 59.9234 32.525 57.9401 32.525C55.9567 32.525 54.1951 32.07 52.6551 31.16C51.1384 30.2267 50.3801 28.9317 50.3801 27.275C50.3801 25.875 50.9867 25.175 52.2001 25.175ZM77.8715 11.91C77.7081 13.73 77.6265 16.6583 77.6265 20.695C77.6265 24.7083 77.7198 27.8 77.9065 29.97L79.9365 30.18C79.9831 30.5533 80.0065 30.8567 80.0065 31.09C80.0065 31.3 79.9715 31.615 79.9015 32.035C79.0615 32.0117 77.8481 32 76.2615 32C74.6981 32 73.5548 32.0117 72.8315 32.035C72.7615 31.685 72.7265 31.3933 72.7265 31.16C72.7265 30.9267 72.7498 30.6 72.7965 30.18L74.7215 29.97C74.9081 27.4733 75.0015 24.3117 75.0015 20.485C75.0015 16.635 74.8965 13.7767 74.6865 11.91C73.7765 11.9333 72.5165 12.015 70.9065 12.155L70.8015 14.745C70.4281 14.815 70.0781 14.85 69.7515 14.85C69.4248 14.85 69.1215 14.8383 68.8415 14.815C68.7715 12.9017 68.6665 11.1283 68.5265 9.495L68.7015 9.32C70.4281 9.53 73.1931 9.635 76.9965 9.635C80.7998 9.635 83.1798 9.53 84.1365 9.32L84.3115 9.495C84.1481 11.2917 84.0431 12.9483 83.9965 14.465C83.7165 14.4883 83.4131 14.5 83.0865 14.5C82.7831 14.5 82.4331 14.465 82.0365 14.395L81.9315 12.05C80.9515 12.0033 79.5981 11.9567 77.8715 11.91ZM98.257 11.455C98.2104 11.0817 98.187 10.7667 98.187 10.51C98.187 10.23 98.222 9.89167 98.292 9.495C99.0387 9.51833 99.9604 9.53 101.057 9.53C102.177 9.53 103.145 9.51833 103.962 9.495C104.032 9.89167 104.067 10.265 104.067 10.615C104.067 10.9417 104.044 11.2217 103.997 11.455L102.772 11.56C99.5754 18.4433 97.6854 22.9933 97.102 25.21C97.172 26.9833 97.2654 28.57 97.382 29.97L98.642 30.075C98.6887 30.4483 98.712 30.775 98.712 31.055C98.712 31.3117 98.677 31.6383 98.607 32.035C97.7904 32.0117 96.8454 32 95.772 32C94.6987 32 93.7654 32.0117 92.972 32.035C92.902 31.685 92.867 31.3817 92.867 31.125C92.867 30.845 92.8904 30.495 92.937 30.075L94.162 29.97C94.302 27.94 94.3837 26.33 94.407 25.14C93.8004 23.1333 92.167 19.47 89.507 14.15C88.7604 12.7033 88.317 11.84 88.177 11.56L86.882 11.455C86.8354 11.0817 86.812 10.7667 86.812 10.51C86.812 10.23 86.847 9.89167 86.917 9.495C87.7337 9.51833 88.737 9.53 89.927 9.53C91.1404 9.53 92.1437 9.51833 92.937 9.495C93.007 9.845 93.042 10.16 93.042 10.44C93.042 10.6967 93.0187 11.035 92.972 11.455L91.712 11.56C92.1554 13.2167 92.8904 15.165 93.917 17.405C94.9437 19.645 95.597 21.0917 95.877 21.745H96.017C96.647 20.5317 97.312 18.9567 98.012 17.02C98.712 15.06 99.2254 13.24 99.552 11.56L98.257 11.455ZM109.601 29.97C109.811 26.75 109.916 23.355 109.916 19.785C109.916 16.215 109.811 13.4733 109.601 11.56L108.411 11.455C108.364 11.0817 108.341 10.7667 108.341 10.51C108.341 10.23 108.376 9.89167 108.446 9.495C109.263 9.51833 110.208 9.53 111.281 9.53C112.354 9.53 113.288 9.51833 114.081 9.495C114.151 9.845 114.186 10.16 114.186 10.44C114.186 10.6967 114.163 11.035 114.116 11.455L112.786 11.56C112.623 13.7533 112.541 16.775 112.541 20.625C112.541 24.4517 112.623 27.3567 112.786 29.34C113.509 29.41 114.559 29.445 115.936 29.445C117.336 29.445 118.398 29.3867 119.121 29.27L119.226 26.89C119.623 26.82 119.973 26.785 120.276 26.785C120.603 26.785 120.906 26.7967 121.186 26.82C121.256 28.5933 121.361 30.32 121.501 32L121.326 32.175C120.229 32.0583 118.001 32 114.641 32C111.281 32 109.204 32.0117 108.411 32.035C108.341 31.685 108.306 31.3817 108.306 31.125C108.306 30.845 108.329 30.495 108.376 30.075L109.601 29.97ZM130.544 11.56C130.38 13.45 130.299 16.3783 130.299 20.345C130.299 24.3117 130.404 27.52 130.614 29.97L131.874 30.075C131.92 30.4483 131.944 30.775 131.944 31.055C131.944 31.3117 131.909 31.6383 131.839 32.035C131.022 32.0117 130.077 32 129.004 32C127.93 32 126.997 32.0117 126.204 32.035C126.134 31.685 126.099 31.3817 126.099 31.125C126.099 30.845 126.122 30.495 126.169 30.075L127.394 29.97C127.58 27.45 127.674 24.2417 127.674 20.345C127.674 16.425 127.569 13.4967 127.359 11.56L126.169 11.455C126.122 11.0817 126.099 10.7667 126.099 10.51C126.099 10.23 126.134 9.89167 126.204 9.495C127.02 9.51833 127.965 9.53 129.039 9.53C130.112 9.53 131.045 9.51833 131.839 9.495C131.909 9.845 131.944 10.16 131.944 10.44C131.944 10.6967 131.92 11.035 131.874 11.455L130.544 11.56ZM152.012 16.25C151.289 16.25 150.729 16.0283 150.332 15.585C149.935 15.1417 149.737 14.57 149.737 13.87C149.737 13.1467 149.889 12.5867 150.192 12.19C149.445 11.49 148.419 11.14 147.112 11.14C145.199 11.14 143.752 11.945 142.772 13.555C141.792 15.1417 141.302 17.4867 141.302 20.59C141.302 26.82 143.239 29.935 147.112 29.935C148.045 29.935 148.99 29.7133 149.947 29.27C150.927 28.8033 151.755 28.1967 152.432 27.45C153.155 28.0333 153.622 28.955 153.832 30.215C151.755 31.755 149.515 32.525 147.112 32.525C144.055 32.525 141.839 31.58 140.462 29.69C139.109 27.8 138.432 24.86 138.432 20.87C138.432 13.0067 141.325 9.075 147.112 9.075C148.862 9.075 150.414 9.54167 151.767 10.475C153.144 11.385 153.832 12.575 153.832 14.045C153.832 15.515 153.225 16.25 152.012 16.25ZM160.767 29.97C160.977 26.75 161.082 23.355 161.082 19.785C161.082 16.215 160.977 13.4733 160.767 11.56L159.577 11.455C159.53 11.0817 159.507 10.7667 159.507 10.51C159.507 10.23 159.542 9.89167 159.612 9.495C160.428 9.51833 161.373 9.53 162.447 9.53C163.52 9.53 164.453 9.51833 165.247 9.495C165.317 9.845 165.352 10.16 165.352 10.44C165.352 10.6967 165.328 11.035 165.282 11.455L163.952 11.56C163.788 13.7533 163.707 16.775 163.707 20.625C163.707 24.4517 163.788 27.3567 163.952 29.34C164.675 29.41 165.725 29.445 167.102 29.445C168.502 29.445 169.563 29.3867 170.287 29.27L170.392 26.89C170.788 26.82 171.138 26.785 171.442 26.785C171.768 26.785 172.072 26.7967 172.352 26.82C172.422 28.5933 172.527 30.32 172.667 32L172.492 32.175C171.395 32.0583 169.167 32 165.807 32C162.447 32 160.37 32.0117 159.577 32.035C159.507 31.685 159.472 31.3817 159.472 31.125C159.472 30.845 159.495 30.495 159.542 30.075L160.767 29.97ZM187.554 17.79C188.068 17.7433 188.418 17.72 188.604 17.72C188.791 17.72 189.094 17.755 189.514 17.825C189.491 18.5483 189.479 19.4817 189.479 20.625C189.479 21.7683 189.491 22.515 189.514 22.865C189.164 22.935 188.826 22.97 188.499 22.97C188.173 22.97 187.858 22.9467 187.554 22.9L187.449 21.675C186.189 21.6283 185.151 21.605 184.334 21.605C183.518 21.605 182.479 21.6283 181.219 21.675C181.219 24.7317 181.301 27.2867 181.464 29.34C182.281 29.41 183.436 29.445 184.929 29.445C186.446 29.445 187.636 29.3867 188.499 29.27L188.604 26.89C189.001 26.82 189.363 26.785 189.689 26.785C190.039 26.785 190.331 26.7967 190.564 26.82C190.588 28.64 190.693 30.3667 190.879 32L190.704 32.175C189.561 32.0583 187.053 32 183.179 32C179.329 32 177.299 32.0117 177.089 32.035C177.019 31.685 176.984 31.3583 176.984 31.055C176.984 30.7283 177.008 30.4017 177.054 30.075L178.279 29.97C178.489 26.3533 178.594 23.0867 178.594 20.17C178.594 17.23 178.454 14.395 178.174 11.665L176.984 11.56C176.938 11.2567 176.914 10.9417 176.914 10.615C176.914 10.2883 176.949 9.95 177.019 9.6C177.603 9.62333 179.738 9.635 183.424 9.635C187.111 9.635 189.479 9.53 190.529 9.32L190.704 9.495C190.518 11.5483 190.413 13.205 190.389 14.465C190.156 14.4883 189.864 14.5 189.514 14.5C189.164 14.5 188.803 14.465 188.429 14.395L188.324 12.015C187.134 11.945 185.898 11.91 184.614 11.91C183.331 11.91 182.269 11.945 181.429 12.015C181.289 13.485 181.219 15.8883 181.219 19.225C181.593 19.2483 182.351 19.26 183.494 19.26C184.638 19.26 185.956 19.2133 187.449 19.12L187.554 17.79Z" fill="#BA7894"/>
<defs>
<clipPath id="clip0_106_70">
<rect width="39.0244" height="40" fill="white" transform="translate(0 1)"/>
</clipPath>
</defs>
</svg>
